<mxfile host="app.diagrams.net" modified="2023-01-12T07:34:10.698Z" agent="5.0 (Macintosh; Intel Mac OS X 10_15_6) AppleWebKit/605.1.15 (KHTML, like Gecko) Version/15.6.1 Safari/605.1.15" etag="wrdS9tGtpNvCXYeaQFIk" version="20.7.4" type="github" pages="2">
  <diagram id="i1r-ZCTMSqfyBvfkEAix" name="IM TOM Context Diagram">
    <mxGraphModel dx="990" dy="575" grid="1" gridSize="10" guides="1" tooltips="1" connect="1" arrows="1" fold="1" page="1" pageScale="1" pageWidth="1169" pageHeight="827" math="0" shadow="0">
      <root>
        <mxCell id="0" />
        <mxCell id="1" parent="0" />
        <mxCell id="qk3rGnHoOybyoq6jBVtu-4" value="Capability" style="html=1;outlineConnect=0;whiteSpace=wrap;fillColor=#d5e8d4;shape=mxgraph.archimate3.businessObject;overflow=fill;sketch=1;curveFitting=1;jiggle=2;strokeColor=#82b366;" parent="1" vertex="1">
          <mxGeometry x="30" y="166" width="110" height="50" as="geometry" />
        </mxCell>
        <mxCell id="5AEGeh9E4lXkHmSnKk7K-1" value="Target Operating Model &lt;br&gt;Information Management" style="ellipse;whiteSpace=wrap;html=1;aspect=fixed;sketch=1;fillColor=#B2C9AB;strokeColor=#788AA3;fontColor=#46495D;fontStyle=1" parent="1" vertex="1">
          <mxGeometry x="649" y="230" width="220" height="220" as="geometry" />
        </mxCell>
        <mxCell id="5AEGeh9E4lXkHmSnKk7K-2" value="Enterprise Bridge" style="whiteSpace=wrap;html=1;aspect=fixed;sketch=1;fillColor=#f8cecc;strokeColor=#b85450;" parent="1" vertex="1">
          <mxGeometry x="1000" y="270" width="80" height="80" as="geometry" />
        </mxCell>
        <mxCell id="5AEGeh9E4lXkHmSnKk7K-3" value="Primavera P6" style="whiteSpace=wrap;html=1;aspect=fixed;sketch=1;fillColor=#d5e8d4;strokeColor=#82b366;" parent="1" vertex="1">
          <mxGeometry x="930" y="530" width="80" height="80" as="geometry" />
        </mxCell>
        <mxCell id="5AEGeh9E4lXkHmSnKk7K-4" value="Xactium Risk Management" style="whiteSpace=wrap;html=1;aspect=fixed;sketch=1;fillColor=#d5e8d4;strokeColor=#82b366;" parent="1" vertex="1">
          <mxGeometry x="945" y="90" width="80" height="80" as="geometry" />
        </mxCell>
        <mxCell id="5AEGeh9E4lXkHmSnKk7K-5" value="Schedule&lt;br&gt;Data" style="curved=1;endArrow=classic;html=1;rounded=0;entryX=0.847;entryY=0.9;entryDx=0;entryDy=0;startArrow=none;startFill=0;endFill=1;entryPerimeter=0;sketch=1;strokeColor=#788AA3;fontColor=#46495D;fontSize=8;" parent="1" target="5AEGeh9E4lXkHmSnKk7K-1" edge="1">
          <mxGeometry x="-0.1555" y="-30" width="50" height="50" relative="1" as="geometry">
            <mxPoint x="920" y="540" as="sourcePoint" />
            <mxPoint x="874.94" y="360.02" as="targetPoint" />
            <Array as="points">
              <mxPoint x="860" y="480" />
            </Array>
            <mxPoint as="offset" />
          </mxGeometry>
        </mxCell>
        <mxCell id="5AEGeh9E4lXkHmSnKk7K-6" value="Safety Management System" style="whiteSpace=wrap;html=1;aspect=fixed;sketch=1;fillColor=#d5e8d4;strokeColor=#82b366;" parent="1" vertex="1">
          <mxGeometry x="470" y="90" width="80" height="80" as="geometry" />
        </mxCell>
        <mxCell id="5AEGeh9E4lXkHmSnKk7K-7" value="Requirements" style="curved=1;endArrow=classic;html=1;rounded=0;startArrow=none;startFill=0;endFill=1;sketch=1;strokeColor=#788AA3;fontColor=#46495D;fontSize=8;exitX=0.647;exitY=1.113;exitDx=0;exitDy=0;exitPerimeter=0;" parent="1" source="5AEGeh9E4lXkHmSnKk7K-6" edge="1">
          <mxGeometry x="-0.0809" y="-10" width="50" height="50" relative="1" as="geometry">
            <mxPoint x="720" y="150" as="sourcePoint" />
            <mxPoint x="640" y="300" as="targetPoint" />
            <Array as="points">
              <mxPoint x="540" y="250" />
            </Array>
            <mxPoint as="offset" />
          </mxGeometry>
        </mxCell>
        <mxCell id="5AEGeh9E4lXkHmSnKk7K-8" value="New / Updates to&lt;br&gt;Risks" style="curved=1;endArrow=classic;html=1;rounded=0;startArrow=none;startFill=0;endFill=1;sketch=1;strokeColor=#788AA3;fontColor=#46495D;fontSize=8;" parent="1" edge="1">
          <mxGeometry x="-0.0583" y="14" width="50" height="50" relative="1" as="geometry">
            <mxPoint x="830" y="230" as="sourcePoint" />
            <mxPoint x="940" y="150" as="targetPoint" />
            <Array as="points">
              <mxPoint x="850" y="178" />
            </Array>
            <mxPoint as="offset" />
          </mxGeometry>
        </mxCell>
        <mxCell id="5AEGeh9E4lXkHmSnKk7K-9" value="Existing&lt;br&gt;Risks" style="curved=1;endArrow=classic;html=1;rounded=0;startArrow=none;startFill=0;endFill=1;sketch=1;strokeColor=#788AA3;fontColor=#46495D;fontSize=8;entryX=0.959;entryY=0.219;entryDx=0;entryDy=0;entryPerimeter=0;exitX=0.243;exitY=1.101;exitDx=0;exitDy=0;exitPerimeter=0;" parent="1" source="5AEGeh9E4lXkHmSnKk7K-4" target="5AEGeh9E4lXkHmSnKk7K-1" edge="1">
          <mxGeometry x="-0.2302" y="-28" width="50" height="50" relative="1" as="geometry">
            <mxPoint x="980" y="190" as="sourcePoint" />
            <mxPoint x="950" y="160" as="targetPoint" />
            <Array as="points">
              <mxPoint x="930" y="230" />
            </Array>
            <mxPoint as="offset" />
          </mxGeometry>
        </mxCell>
        <mxCell id="5AEGeh9E4lXkHmSnKk7K-11" value="Risk Managers&lt;br&gt;" style="shape=umlActor;verticalLabelPosition=bottom;verticalAlign=top;html=1;outlineConnect=0;rounded=0;sketch=1;fillColor=#B2C9AB;strokeColor=#788AA3;fontColor=#46495D;" parent="1" vertex="1">
          <mxGeometry x="720" y="40" width="30" height="60" as="geometry" />
        </mxCell>
        <mxCell id="5AEGeh9E4lXkHmSnKk7K-12" value="Business&lt;br&gt;Processes" style="curved=1;endArrow=classic;html=1;rounded=0;startArrow=none;startFill=0;endFill=1;sketch=1;strokeColor=#788AA3;fontColor=#46495D;fontSize=8;" parent="1" edge="1">
          <mxGeometry x="-0.3" y="-35" width="50" height="50" relative="1" as="geometry">
            <mxPoint x="990" y="320" as="sourcePoint" />
            <mxPoint x="870" y="360" as="targetPoint" />
            <Array as="points">
              <mxPoint x="940" y="370" />
            </Array>
            <mxPoint x="-1" as="offset" />
          </mxGeometry>
        </mxCell>
        <mxCell id="5AEGeh9E4lXkHmSnKk7K-13" value="Guest Access" style="curved=1;endArrow=classic;html=1;rounded=0;startArrow=none;startFill=0;endFill=1;sketch=1;strokeColor=#788AA3;fontColor=#46495D;fontSize=8;" parent="1" edge="1">
          <mxGeometry x="-0.0154" y="15" width="50" height="50" relative="1" as="geometry">
            <mxPoint x="400" y="350" as="sourcePoint" />
            <mxPoint x="640" y="350" as="targetPoint" />
            <Array as="points">
              <mxPoint x="520" y="360" />
            </Array>
            <mxPoint as="offset" />
          </mxGeometry>
        </mxCell>
        <mxCell id="5AEGeh9E4lXkHmSnKk7K-16" value="Infrastructure&lt;br&gt;Management" style="shape=umlActor;verticalLabelPosition=bottom;verticalAlign=top;html=1;outlineConnect=0;rounded=0;sketch=1;fillColor=#B2C9AB;strokeColor=#788AA3;fontColor=#46495D;" parent="1" vertex="1">
          <mxGeometry x="790" y="620" width="30" height="60" as="geometry" />
        </mxCell>
        <mxCell id="5AEGeh9E4lXkHmSnKk7K-17" value="Approve / Reject&lt;br&gt;TOM Changes" style="curved=1;endArrow=classic;html=1;rounded=0;startArrow=none;startFill=0;endFill=1;sketch=1;strokeColor=#788AA3;fontColor=#46495D;fontSize=8;" parent="1" edge="1">
          <mxGeometry x="-0.0652" y="22" width="50" height="50" relative="1" as="geometry">
            <mxPoint x="520" y="530" as="sourcePoint" />
            <mxPoint x="660" y="400" as="targetPoint" />
            <Array as="points">
              <mxPoint x="570" y="450" />
            </Array>
            <mxPoint as="offset" />
          </mxGeometry>
        </mxCell>
        <mxCell id="5AEGeh9E4lXkHmSnKk7K-18" value="Notification of &lt;br&gt;TOM Changes" style="curved=1;endArrow=classic;html=1;rounded=0;startArrow=none;startFill=0;endFill=1;sketch=1;strokeColor=#788AA3;fontColor=#46495D;fontSize=8;exitX=0.323;exitY=1;exitDx=0;exitDy=0;exitPerimeter=0;" parent="1" source="5AEGeh9E4lXkHmSnKk7K-1" edge="1">
          <mxGeometry x="0.1513" y="-41" width="50" height="50" relative="1" as="geometry">
            <mxPoint x="500" y="540" as="sourcePoint" />
            <mxPoint x="530" y="570" as="targetPoint" />
            <Array as="points">
              <mxPoint x="690" y="540" />
            </Array>
            <mxPoint y="1" as="offset" />
          </mxGeometry>
        </mxCell>
        <mxCell id="5AEGeh9E4lXkHmSnKk7K-19" value="Notification of&lt;br&gt;Impact to Risk" style="curved=1;endArrow=classic;html=1;rounded=0;startArrow=none;startFill=0;endFill=1;sketch=1;strokeColor=#788AA3;fontColor=#46495D;fontSize=8;exitX=0.417;exitY=-0.017;exitDx=0;exitDy=0;exitPerimeter=0;" parent="1" source="5AEGeh9E4lXkHmSnKk7K-1" edge="1">
          <mxGeometry x="-0.0918" y="34" width="50" height="50" relative="1" as="geometry">
            <mxPoint x="530" y="540" as="sourcePoint" />
            <mxPoint x="730" y="130" as="targetPoint" />
            <Array as="points">
              <mxPoint x="710" y="200" />
            </Array>
            <mxPoint as="offset" />
          </mxGeometry>
        </mxCell>
        <mxCell id="5AEGeh9E4lXkHmSnKk7K-20" value="Capability Owner" style="shape=umlActor;verticalLabelPosition=bottom;verticalAlign=top;html=1;outlineConnect=0;rounded=0;sketch=1;fillColor=#B2C9AB;strokeColor=#788AA3;fontColor=#46495D;" parent="1" vertex="1">
          <mxGeometry x="460" y="540" width="30" height="60" as="geometry" />
        </mxCell>
        <mxCell id="5AEGeh9E4lXkHmSnKk7K-21" value="Configure and&lt;br&gt;Access TOM&lt;br&gt;Information" style="curved=1;endArrow=classic;html=1;rounded=0;entryX=0.525;entryY=1.037;entryDx=0;entryDy=0;startArrow=none;startFill=0;endFill=1;entryPerimeter=0;sketch=1;strokeColor=#788AA3;fontColor=#46495D;fontSize=8;" parent="1" target="5AEGeh9E4lXkHmSnKk7K-1" edge="1">
          <mxGeometry x="0.0248" y="-37" width="50" height="50" relative="1" as="geometry">
            <mxPoint x="800" y="610" as="sourcePoint" />
            <mxPoint x="845.3399999999999" y="438" as="targetPoint" />
            <Array as="points">
              <mxPoint x="760" y="520" />
            </Array>
            <mxPoint x="-1" as="offset" />
          </mxGeometry>
        </mxCell>
        <mxCell id="5AEGeh9E4lXkHmSnKk7K-10" value="External&lt;br&gt;Organisations" style="shape=umlActor;verticalLabelPosition=bottom;verticalAlign=top;html=1;outlineConnect=0;rounded=0;sketch=1;fillColor=#B2C9AB;strokeColor=#788AA3;fontColor=#46495D;" parent="1" vertex="1">
          <mxGeometry x="350" y="314" width="30" height="60" as="geometry" />
        </mxCell>
        <mxCell id="qk3rGnHoOybyoq6jBVtu-1" value="Oracle ERP" style="whiteSpace=wrap;html=1;aspect=fixed;sketch=1;fillColor=#d5e8d4;strokeColor=#82b366;" parent="1" vertex="1">
          <mxGeometry x="1040" y="400" width="80" height="80" as="geometry" />
        </mxCell>
        <mxCell id="qk3rGnHoOybyoq6jBVtu-2" value="Roles &amp;amp; Resources" style="curved=1;endArrow=classic;html=1;rounded=0;entryX=0.955;entryY=0.785;entryDx=0;entryDy=0;startArrow=none;startFill=0;endFill=1;entryPerimeter=0;sketch=1;strokeColor=#788AA3;fontColor=#46495D;fontSize=8;" parent="1" target="5AEGeh9E4lXkHmSnKk7K-1" edge="1">
          <mxGeometry x="-0.0923" y="26" width="50" height="50" relative="1" as="geometry">
            <mxPoint x="1030" y="430" as="sourcePoint" />
            <mxPoint x="845.3399999999999" y="438" as="targetPoint" />
            <Array as="points">
              <mxPoint x="950" y="390" />
            </Array>
            <mxPoint as="offset" />
          </mxGeometry>
        </mxCell>
        <mxCell id="qk3rGnHoOybyoq6jBVtu-3" value="Capability Group" style="html=1;outlineConnect=0;whiteSpace=wrap;fillColor=#d5e8d4;shape=mxgraph.archimate3.businessObject;overflow=fill;sketch=1;curveFitting=1;jiggle=2;strokeColor=#82b366;" parent="1" vertex="1">
          <mxGeometry x="30" y="76" width="110" height="50" as="geometry" />
        </mxCell>
        <mxCell id="qk3rGnHoOybyoq6jBVtu-5" value="Process" style="html=1;outlineConnect=0;whiteSpace=wrap;fillColor=#f8cecc;shape=mxgraph.archimate3.businessObject;overflow=fill;sketch=1;curveFitting=1;jiggle=2;strokeColor=#b85450;" parent="1" vertex="1">
          <mxGeometry x="30" y="256" width="110" height="50" as="geometry" />
        </mxCell>
        <mxCell id="qk3rGnHoOybyoq6jBVtu-7" value="" style="endArrow=none;html=1;rounded=0;entryX=0.5;entryY=1;entryDx=0;entryDy=0;entryPerimeter=0;sketch=1;curveFitting=1;jiggle=2;" parent="1" source="qk3rGnHoOybyoq6jBVtu-5" target="qk3rGnHoOybyoq6jBVtu-4" edge="1">
          <mxGeometry width="50" height="50" relative="1" as="geometry">
            <mxPoint x="150" y="276" as="sourcePoint" />
            <mxPoint x="200" y="226" as="targetPoint" />
          </mxGeometry>
        </mxCell>
        <mxCell id="qk3rGnHoOybyoq6jBVtu-8" value="" style="endArrow=none;html=1;rounded=0;entryX=0.5;entryY=1;entryDx=0;entryDy=0;entryPerimeter=0;exitX=0.5;exitY=0;exitDx=0;exitDy=0;exitPerimeter=0;sketch=1;curveFitting=1;jiggle=2;" parent="1" source="qk3rGnHoOybyoq6jBVtu-4" target="qk3rGnHoOybyoq6jBVtu-3" edge="1">
          <mxGeometry width="50" height="50" relative="1" as="geometry">
            <mxPoint x="95" y="266" as="sourcePoint" />
            <mxPoint x="95" y="226" as="targetPoint" />
          </mxGeometry>
        </mxCell>
        <mxCell id="qk3rGnHoOybyoq6jBVtu-9" value="Task" style="html=1;outlineConnect=0;whiteSpace=wrap;fillColor=#f8cecc;shape=mxgraph.archimate3.businessObject;overflow=fill;sketch=1;curveFitting=1;jiggle=2;strokeColor=#b85450;" parent="1" vertex="1">
          <mxGeometry x="30" y="350" width="110" height="50" as="geometry" />
        </mxCell>
        <mxCell id="qk3rGnHoOybyoq6jBVtu-10" value="" style="endArrow=none;html=1;rounded=0;entryX=0.5;entryY=1;entryDx=0;entryDy=0;entryPerimeter=0;sketch=1;curveFitting=1;jiggle=2;exitX=0.5;exitY=0;exitDx=0;exitDy=0;exitPerimeter=0;" parent="1" source="qk3rGnHoOybyoq6jBVtu-9" target="qk3rGnHoOybyoq6jBVtu-5" edge="1">
          <mxGeometry width="50" height="50" relative="1" as="geometry">
            <mxPoint x="95" y="266" as="sourcePoint" />
            <mxPoint x="95" y="226" as="targetPoint" />
          </mxGeometry>
        </mxCell>
        <mxCell id="qk3rGnHoOybyoq6jBVtu-11" value="Organisation State" style="html=1;outlineConnect=0;whiteSpace=wrap;fillColor=#d5e8d4;shape=mxgraph.archimate3.businessObject;overflow=fill;sketch=1;curveFitting=1;jiggle=2;strokeColor=#82b366;" parent="1" vertex="1">
          <mxGeometry x="180" y="76" width="110" height="50" as="geometry" />
        </mxCell>
        <mxCell id="qk3rGnHoOybyoq6jBVtu-12" value="Milestone" style="html=1;outlineConnect=0;whiteSpace=wrap;fillColor=#d5e8d4;shape=mxgraph.archimate3.businessObject;overflow=fill;sketch=1;curveFitting=1;jiggle=2;strokeColor=#82b366;" parent="1" vertex="1">
          <mxGeometry x="180" y="166" width="110" height="50" as="geometry" />
        </mxCell>
        <mxCell id="qk3rGnHoOybyoq6jBVtu-15" value="" style="endArrow=none;html=1;rounded=0;entryX=0.5;entryY=1;entryDx=0;entryDy=0;entryPerimeter=0;exitX=0.5;exitY=0;exitDx=0;exitDy=0;exitPerimeter=0;sketch=1;curveFitting=1;jiggle=2;" parent="1" source="qk3rGnHoOybyoq6jBVtu-12" target="qk3rGnHoOybyoq6jBVtu-11" edge="1">
          <mxGeometry width="50" height="50" relative="1" as="geometry">
            <mxPoint x="95" y="176" as="sourcePoint" />
            <mxPoint x="95" y="136" as="targetPoint" />
          </mxGeometry>
        </mxCell>
        <mxCell id="Qeo9wmbYOwmH1zV_UKUF-1" value="Core TOM Objects" style="text;strokeColor=none;fillColor=none;html=1;fontSize=13;fontStyle=1;verticalAlign=middle;align=left;" parent="1" vertex="1">
          <mxGeometry x="30" y="40" width="260" height="24" as="geometry" />
        </mxCell>
        <mxCell id="Qeo9wmbYOwmH1zV_UKUF-5" value="Risk" style="html=1;outlineConnect=0;whiteSpace=wrap;fillColor=#f8cecc;shape=mxgraph.archimate3.businessObject;overflow=fill;sketch=1;curveFitting=1;jiggle=2;strokeColor=#b85450;" parent="1" vertex="1">
          <mxGeometry x="180" y="250" width="110" height="50" as="geometry" />
        </mxCell>
        <mxCell id="Qeo9wmbYOwmH1zV_UKUF-6" value="Role" style="html=1;outlineConnect=0;whiteSpace=wrap;fillColor=#d5e8d4;shape=mxgraph.archimate3.businessObject;overflow=fill;sketch=1;curveFitting=1;jiggle=2;strokeColor=#82b366;" parent="1" vertex="1">
          <mxGeometry x="30" y="440" width="110" height="50" as="geometry" />
        </mxCell>
        <mxCell id="Qeo9wmbYOwmH1zV_UKUF-7" value="NB. Risk does not appear in Archimate" style="text;html=1;strokeColor=none;fillColor=none;align=center;verticalAlign=middle;whiteSpace=wrap;rounded=0;fontSize=9;" parent="1" vertex="1">
          <mxGeometry x="195" y="306" width="80" height="44" as="geometry" />
        </mxCell>
      </root>
    </mxGraphModel>
  </diagram>
  <diagram id="ZLQFWOVWHKN_zhoa3P1L" name="IT Orbus Context">
    <mxGraphModel dx="943" dy="548" grid="1" gridSize="10" guides="1" tooltips="1" connect="1" arrows="1" fold="1" page="1" pageScale="1" pageWidth="1169" pageHeight="827" math="0" shadow="0">
      <root>
        <mxCell id="0" />
        <mxCell id="1" parent="0" />
        <mxCell id="FVv5zWP96P7qH3IZ2VIL-1" value="Enterprise Architecture&lt;br&gt;Information Management" style="ellipse;whiteSpace=wrap;html=1;aspect=fixed;sketch=1;fillColor=#B2C9AB;strokeColor=#788AA3;fontColor=#46495D;fontStyle=1" parent="1" vertex="1">
          <mxGeometry x="510" y="220" width="220" height="220" as="geometry" />
        </mxCell>
        <mxCell id="C-wUpakT2WixYSqwnOht-1" value="Solution&lt;br&gt;Architects" style="shape=umlActor;verticalLabelPosition=bottom;verticalAlign=top;html=1;outlineConnect=0;rounded=0;sketch=1;fillColor=#B2C9AB;strokeColor=#788AA3;fontColor=#46495D;" parent="1" vertex="1">
          <mxGeometry x="570" y="20" width="30" height="60" as="geometry" />
        </mxCell>
        <mxCell id="C-wUpakT2WixYSqwnOht-2" value="IT SLT" style="shape=umlActor;verticalLabelPosition=bottom;verticalAlign=top;html=1;outlineConnect=0;rounded=0;sketch=1;fillColor=#B2C9AB;strokeColor=#788AA3;fontColor=#46495D;" parent="1" vertex="1">
          <mxGeometry x="930" y="450" width="30" height="60" as="geometry" />
        </mxCell>
        <mxCell id="C-wUpakT2WixYSqwnOht-3" value="Enterprise&lt;br&gt;Architects" style="shape=umlActor;verticalLabelPosition=bottom;verticalAlign=top;html=1;outlineConnect=0;rounded=0;sketch=1;fillColor=#B2C9AB;strokeColor=#788AA3;fontColor=#46495D;" parent="1" vertex="1">
          <mxGeometry x="840" y="80" width="30" height="60" as="geometry" />
        </mxCell>
        <mxCell id="C-wUpakT2WixYSqwnOht-4" value="Product&lt;br&gt;Owners" style="shape=umlActor;verticalLabelPosition=bottom;verticalAlign=top;html=1;outlineConnect=0;rounded=0;sketch=1;fillColor=#B2C9AB;strokeColor=#788AA3;fontColor=#46495D;" parent="1" vertex="1">
          <mxGeometry x="920" y="270" width="30" height="60" as="geometry" />
        </mxCell>
        <mxCell id="2n12v_qilhQ9wqg35Ykj-1" value="Core EA Objects" style="text;strokeColor=none;fillColor=none;html=1;fontSize=13;fontStyle=1;verticalAlign=middle;align=left;" parent="1" vertex="1">
          <mxGeometry x="30" y="40" width="260" height="24" as="geometry" />
        </mxCell>
        <mxCell id="9MuzAm8sRQxQg9D2PgER-1" value="Capability" style="html=1;outlineConnect=0;whiteSpace=wrap;fillColor=#ffe6cc;shape=mxgraph.archimate3.businessObject;overflow=fill;sketch=1;curveFitting=1;jiggle=2;strokeColor=#d79b00;" parent="1" vertex="1">
          <mxGeometry x="30" y="80" width="110" height="50" as="geometry" />
        </mxCell>
        <mxCell id="sbDaumwnrzYOEA-mAEXr-2" value="Goal" style="html=1;outlineConnect=0;whiteSpace=wrap;fillColor=#e1d5e7;shape=mxgraph.archimate3.businessObject;overflow=fill;sketch=1;curveFitting=1;jiggle=2;strokeColor=#9673a6;" parent="1" vertex="1">
          <mxGeometry x="190" y="80" width="110" height="50" as="geometry" />
        </mxCell>
        <mxCell id="-hAzDeHEm654IWTeYz6E-1" value="Work Package" style="html=1;outlineConnect=0;whiteSpace=wrap;fillColor=#f8cecc;shape=mxgraph.archimate3.businessObject;overflow=fill;sketch=1;curveFitting=1;jiggle=2;strokeColor=#b85450;" parent="1" vertex="1">
          <mxGeometry x="190" y="250" width="110" height="50" as="geometry" />
        </mxCell>
        <mxCell id="-hAzDeHEm654IWTeYz6E-2" value="Outcome" style="html=1;outlineConnect=0;whiteSpace=wrap;fillColor=#e1d5e7;shape=mxgraph.archimate3.businessObject;overflow=fill;sketch=1;curveFitting=1;jiggle=2;strokeColor=#9673a6;" parent="1" vertex="1">
          <mxGeometry x="190" y="160" width="110" height="50" as="geometry" />
        </mxCell>
        <mxCell id="-hAzDeHEm654IWTeYz6E-3" value="Application Service" style="html=1;outlineConnect=0;whiteSpace=wrap;fillColor=#dae8fc;shape=mxgraph.archimate3.businessObject;overflow=fill;sketch=1;curveFitting=1;jiggle=2;strokeColor=#6c8ebf;" parent="1" vertex="1">
          <mxGeometry x="30" y="250" width="110" height="50" as="geometry" />
        </mxCell>
        <mxCell id="-hAzDeHEm654IWTeYz6E-4" value="Plateau" style="html=1;outlineConnect=0;whiteSpace=wrap;fillColor=#d5e8d4;shape=mxgraph.archimate3.businessObject;overflow=fill;sketch=1;curveFitting=1;jiggle=2;strokeColor=#82b366;" parent="1" vertex="1">
          <mxGeometry x="30" y="160" width="110" height="50" as="geometry" />
        </mxCell>
        <mxCell id="-hAzDeHEm654IWTeYz6E-6" value="Application Component" style="html=1;outlineConnect=0;whiteSpace=wrap;fillColor=#dae8fc;shape=mxgraph.archimate3.businessObject;overflow=fill;sketch=1;curveFitting=1;jiggle=2;strokeColor=#6c8ebf;" parent="1" vertex="1">
          <mxGeometry x="30" y="340" width="110" height="50" as="geometry" />
        </mxCell>
        <mxCell id="-hAzDeHEm654IWTeYz6E-7" value="Map to Corporate Milestones" style="text;html=1;strokeColor=none;fillColor=none;align=left;verticalAlign=middle;whiteSpace=wrap;rounded=0;fontSize=10;" parent="1" vertex="1">
          <mxGeometry x="320" y="170" width="140" height="30" as="geometry" />
        </mxCell>
        <mxCell id="-hAzDeHEm654IWTeYz6E-8" value="Map to IT Projects&lt;br&gt;Map to Business Service / Product" style="text;html=1;strokeColor=none;fillColor=none;align=left;verticalAlign=middle;whiteSpace=wrap;rounded=0;fontSize=10;" parent="1" vertex="1">
          <mxGeometry x="320" y="260" width="160" height="30" as="geometry" />
        </mxCell>
        <mxCell id="93ms2jAiU5BK-KCquyzE-1" value="Primavera P6" style="whiteSpace=wrap;html=1;aspect=fixed;sketch=1;fillColor=#d5e8d4;strokeColor=#82b366;" vertex="1" parent="1">
          <mxGeometry x="734.66" y="552" width="80" height="80" as="geometry" />
        </mxCell>
        <mxCell id="93ms2jAiU5BK-KCquyzE-2" value="Corporate Milestones" style="curved=1;endArrow=classic;html=1;rounded=0;entryX=0.847;entryY=0.9;entryDx=0;entryDy=0;startArrow=none;startFill=0;endFill=1;entryPerimeter=0;sketch=1;strokeColor=#788AA3;fontColor=#46495D;fontSize=8;" edge="1" parent="1">
          <mxGeometry x="-0.1555" y="-30" width="50" height="50" relative="1" as="geometry">
            <mxPoint x="724.66" y="562" as="sourcePoint" />
            <mxPoint x="639.9999999999999" y="450" as="targetPoint" />
            <Array as="points">
              <mxPoint x="664.66" y="502" />
            </Array>
            <mxPoint as="offset" />
          </mxGeometry>
        </mxCell>
        <mxCell id="5ZIyuqTt5ImsdFRbtDPz-1" value="Service Now" style="whiteSpace=wrap;html=1;aspect=fixed;sketch=1;fillColor=#d5e8d4;strokeColor=#82b366;" vertex="1" parent="1">
          <mxGeometry x="429.99999999999994" y="562" width="80" height="80" as="geometry" />
        </mxCell>
        <mxCell id="5ZIyuqTt5ImsdFRbtDPz-2" value="Sparx EA" style="whiteSpace=wrap;html=1;aspect=fixed;sketch=1;fillColor=#d5e8d4;strokeColor=#82b366;" vertex="1" parent="1">
          <mxGeometry x="279.99999999999994" y="410" width="80" height="80" as="geometry" />
        </mxCell>
        <mxCell id="5ZIyuqTt5ImsdFRbtDPz-4" value="Application&lt;br&gt;Components" style="curved=1;endArrow=classic;html=1;rounded=0;startArrow=none;startFill=0;endFill=1;sketch=1;strokeColor=#788AA3;fontColor=#46495D;fontSize=8;" edge="1" parent="1">
          <mxGeometry x="-0.1555" y="-30" width="50" height="50" relative="1" as="geometry">
            <mxPoint x="540" y="430" as="sourcePoint" />
            <mxPoint x="470" y="550" as="targetPoint" />
            <Array as="points">
              <mxPoint x="480" y="470" />
            </Array>
            <mxPoint as="offset" />
          </mxGeometry>
        </mxCell>
        <mxCell id="5ZIyuqTt5ImsdFRbtDPz-6" value="Plateaus,&lt;br&gt;Work Packages" style="curved=1;endArrow=classic;html=1;rounded=0;startArrow=none;startFill=0;endFill=1;sketch=1;strokeColor=#788AA3;fontColor=#46495D;fontSize=8;" edge="1" parent="1">
          <mxGeometry x="-0.1555" y="-30" width="50" height="50" relative="1" as="geometry">
            <mxPoint x="530" y="570" as="sourcePoint" />
            <mxPoint x="600" y="450" as="targetPoint" />
            <Array as="points">
              <mxPoint x="580" y="500" />
            </Array>
            <mxPoint as="offset" />
          </mxGeometry>
        </mxCell>
        <mxCell id="5ZIyuqTt5ImsdFRbtDPz-5" value="Conceptual&lt;br&gt;Data&lt;br&gt;Entities" style="curved=1;endArrow=classic;html=1;rounded=0;startArrow=none;startFill=0;endFill=1;sketch=1;strokeColor=#788AA3;fontColor=#46495D;fontSize=8;" edge="1" parent="1">
          <mxGeometry x="-0.1555" y="-30" width="50" height="50" relative="1" as="geometry">
            <mxPoint x="370" y="400" as="sourcePoint" />
            <mxPoint x="500" y="330" as="targetPoint" />
            <Array as="points">
              <mxPoint x="430" y="352" />
            </Array>
            <mxPoint as="offset" />
          </mxGeometry>
        </mxCell>
      </root>
    </mxGraphModel>
  </diagram>
</mxfile>
